PathFileType	4	(X/Y/Z)	70_2_63_p1_0-277.trc
DataRate	CameraRate	NumFrames	NumMarkers	Units	OrigDataRate	OrigDataStartFrame	OrigNumFrames
49.0	49.0	6	27	m	49.0	139	278
Frame#	Time	RHip			RKnee			RAnkle			RBigToe			RSmallToe			RHeel			LHip			LKnee			LAnkle			LBigToe			LSmallToe			LHeel			Neck			Head			Nose			RShoulder			RElbow			RWrist			RThumb			RIndex			RPinky			LShoulder			LElbow			LWrist			LThumb			LIndex			LPinky			
		X1	Y1	Z1	X2	Y2	Z2	X3	Y3	Z3	X4	Y4	Z4	X5	Y5	Z5	X6	Y6	Z6	X7	Y7	Z7	X8	Y8	Z8	X9	Y9	Z9	X10	Y10	Z10	X11	Y11	Z11	X12	Y12	Z12	X13	Y13	Z13	X14	Y14	Z14	X15	Y15	Z15	X16	Y16	Z16	X17	Y17	Z17	X18	Y18	Z18	X19	Y19	Z19	X20	Y20	Z20	X21	Y21	Z21	X22	Y22	Z22	X23	Y23	Z23	X24	Y24	Z24	X25	Y25	Z25	X26	Y26	Z26	X27	Y27	Z27	
139	2.836734693877551	0.3587913241729965	0.5287304877855595	0.13073220123895038	0.3355700448738819	0.6055868688194532	0.512586078056476	0.35516126273819465	0.7423442879170369	0.9319282542986388	0.32544894575336114	0.6362103640875003	1.0019095835672378	0.3890757024761771	0.6116731032049086	0.98847298714093	0.3777761404250118	0.816304590939679	0.9789305838659617	0.1174230934333086	0.5295429639943278	0.10880419560667325	0.13839893874995907	0.682351403513943	0.5384764998624211	0.17119452603031404	0.82293851693477	0.963271155833864	0.1597374308292509	0.600192159521738	0.9738132992961472	0.10857650480760489	0.7059294801420852	0.9819296321783626	0.19052675516022222	0.8508662218947717	0.9990169506477842	0.290492725497869	0.3720297791468405	-0.42649891357690817	0.33519232152317224	0.22328335137613034	-0.6687399278361789	0.3109109115479305	0.2147830182720456	-0.5032996822533446	0.4453714571020227	0.4345965472557737	-0.3524327259521667	0.49017562070313225	0.43004174771923864	-0.08133953407084522	0.3155898417388501	0.25679659979141783	-0.17223859597375887	0.21253307386281284	0.14379865285254964	-0.22071289437791378	0.19433129569484603	0.17203222264551507	-0.2124768835861001	0.21101085793333968	0.23776249527776727	-0.18097532984053236	0.12273491185444116	0.3723411150404621	-0.38747015675059954	-0.007011962265624677	0.36459705960757793	-0.1452515626389333	0.1362194433865225	0.19155314608722107	-0.1612636920282974	0.1783960835821117	0.13531086197692022	-0.21169706650756998	0.19867972470139797	0.11179156775742523	-0.20691966561840033	0.20669458019344486	0.1221291647694453	-0.18070126934682715
140	2.857142857142857	0.35661978991380466	0.5438320966416735	0.12813321617592513	0.3355945095078301	0.6059519873059936	0.5125324737444661	0.35637566748322946	0.7444879242032566	0.9368255159326772	0.3246909466084071	0.6377898429917376	1.0059363104609722	0.3904188431902899	0.6141741791292363	0.993684236210845	0.3719143613586931	0.800556163417788	0.9777846058783124	0.117007044020331	0.5296794163222065	0.11300778422236044	0.1383494146520024	0.6820661369897929	0.5382838422716417	0.17428867417297988	0.8061209259203348	0.957954164479675	0.15978246465617083	0.6003597728908823	0.973727604580739	0.11182196392731009	0.6899235539977406	0.9764314127380235	0.19564238737453146	0.8528990870178259	0.9996465116511845	0.29375625349778134	0.36171163659803346	-0.421402478011966	0.3453525778501853	0.21271075607171278	-0.663669847294213	0.31302844258349294	0.2031002814961512	-0.4981756597846451	0.4471630369103523	0.4204001731039638	-0.3547207756604837	0.48894796888492703	0.4408133136952984	-0.08370606614144693	0.3221021620338185	0.24544872740567775	-0.1687114704458738	0.22631914329700845	0.14379076331920476	-0.20869566403179132	0.21955095636401914	0.13743507790954465	-0.1886152299805035	0.23428872433468825	0.16967982462451417	-0.1617450850133903	0.12296771391529975	0.38254018451360366	-0.3854070245378723	-0.0015849176109533464	0.3677572628618711	-0.13799071832210036	0.13920627510708303	0.1737850935702339	-0.14169052548168867	0.16854192599575515	0.11414023698613622	-0.19773768241014514	0.21110772376856554	0.1061006006275859	-0.17380624113881185	0.23326901021764868	0.11745457776596763	-0.1463536153548595
141	2.877551020408163	0.3565471374511472	0.5445970804378508	0.12792556099314764	0.3355602969616927	0.6058561374264954	0.5126047577692833	0.35637400962401833	0.7443686922983985	0.9368097889206025	0.33084318225319187	0.6504391002395049	1.0070769227756025	0.396181002501692	0.6283354602990529	0.9988057052957027	0.3670515223168596	0.7989981360979191	0.977314597071054	0.12002441984542893	0.5148839075856424	0.11141824218786305	0.1383354220455452	0.6816072841396634	0.5380501241117854	0.1742434232335414	0.8059180105411404	0.9579112440863433	0.15878799582407202	0.597888335203285	0.9690344287139376	0.11214918956975606	0.6896134047499926	0.9761695158046015	0.1895277300836918	0.8524947714905717	1.004015275442684	0.30049723505617815	0.34856170261382835	-0.4170694969445145	0.3545159416923238	0.2223396830669557	-0.6654799821069655	0.31922686665417277	0.19209365069264042	-0.49303895368717565	0.43990595489719425	0.4484636908812519	-0.35985323096251726	0.4850477906352349	0.44246169940954067	-0.0831488999658882	0.3262585519049446	0.2447208555502268	-0.1730458735900556	0.2339442151045062	0.157553431999958	-0.20077378429480136	0.21381488122831466	0.1419441389553531	-0.18809796665885778	0.22534267728247803	0.27426986296082706	-0.16896064285926307	0.13933905207709268	0.3850496520470904	-0.38333618074476344	0.006623796277217061	0.36717322162992116	-0.13079262317059576	0.14606717313391174	0.15316216293153395	-0.13823245093307324	0.18778689155708184	0.12039094593222464	-0.1712172062917323	0.21115996318216318	0.08885056102474354	-0.1490589515485286	0.22533569348424956	0.1022596212209297	-0.13240890093312285
142	2.8979591836734695	0.35469857189060716	0.5600958758443277	0.12936810844804794	0.3355948020318143	0.6055608367962382	0.5127269315622812	0.35634298501684253	0.7443479693537528	0.9368472050652893	0.32544113927637147	0.6359553897110408	1.001700518580024	0.3904072628867381	0.6138907366597742	0.9935243278043143	0.3730873669308618	0.814116765198652	0.9824310721624837	0.1162101349317254	0.5285305869230196	0.1161644158663601	0.1339780136676979	0.6677876016968345	0.5351769559535923	0.17422198764650634	0.8059176334532966	0.9582863630242886	0.16008441391131856	0.6001517701545594	0.9737212060918761	0.11260801765050539	0.6887911238109019	0.979830539262725	0.1895303450520855	0.853523769664194	1.004370951800093	0.3015394101918834	0.35153520181119696	-0.40707017745865137	0.3592792292534086	0.224153560644456	-0.6595826296490357	0.31983052161558684	0.19239236179315147	-0.4863613245173475	0.44180119726126177	0.43509149739978936	-0.3518443947236787	0.4827274519015711	0.4667982614525686	-0.0844763119901001	0.327707081462143	0.24766816600746677	-0.16570558621493153	0.2417794267782524	0.1598311047977222	-0.17985097548027595	0.22481635244441311	0.14575284082882578	-0.1793618602567105	0.249725366826509	0.178748429920297	-0.1414879607338139	0.13537023859327313	0.37387763466602125	-0.3816442374533831	0.006211357628466231	0.3408272669039383	-0.13354748629273158	0.15519111309744785	0.17559684765657121	-0.13178820858076418	0.20029153108456324	0.1235940469077019	-0.14926133259381222	0.21897910144531135	0.1019051738084731	-0.1368895301970427	0.23482079512914708	0.11520096525207163	-0.11959436083354816
143	2.9183673469387754	0.3606477208506102	0.5718738166593805	0.12287877663064296	0.3368760659230076	0.606721051631668	0.5213144284045083	0.35629861001168633	0.7440261625682145	0.9369177580772426	0.32477382614345723	0.6376913399522587	1.0054921504872534	0.39042514057919964	0.6139082644999316	0.993394342372932	0.3685403589086065	0.8015724432662346	0.9826629763679133	0.11591921911116053	0.5289186881626967	0.11190161451265668	0.12946870503497232	0.6535566412093661	0.5324823535565644	0.1742269856555966	0.8058723650946077	0.9582370192825108	0.15875900417051186	0.5976310848076991	0.9691294164690274	0.11267038989809568	0.6885610598452273	0.9798078332877488	0.18949798378903152	0.8540107966555102	1.0045208208211522	0.30509858315613414	0.3409431622876097	-0.3994300606759994	0.3653849536752878	0.21325469602787783	-0.6539694651959661	0.3206000396697132	0.1929044304252511	-0.47966641461295595	0.4433438520781369	0.421751797996039	-0.34754033824220204	0.4775723082540508	0.5195217546685482	-0.09686102357129299	0.3281063165311517	0.2497218762814649	-0.1531255507423971	0.24969607684163075	0.15115306601714704	-0.15046607800512776	0.2407950113452624	0.15371572105352294	-0.15381782044805314	0.2608581510353722	0.17899294244439318	-0.12202822621992325	0.13217927880320854	0.35390986968347904	-0.368678943437336	0.017674550237355476	0.342919845814372	-0.12718336001286523	0.166634347411046	0.1751302787794616	-0.12448528813243653	0.21982707430729873	0.09549664605973791	-0.13711177893092247	0.22598700963675392	0.09515504628462922	-0.12991570640612984	0.24883126697743158	0.1474159778479226	-0.09448012108464716
144	2.938775510204082	0.36057929685376655	0.5723091123576182	0.12274819294031851	0.3366892647351658	0.6070471148350914	0.5175601900323803	0.35519150576240094	0.7309833385171546	0.9368527460950128	0.3268852108408847	0.6214183399651602	0.9999851041552736	0.3904705766446861	0.6138765499874377	0.9937687086268244	0.3712418919904703	0.8207222700247996	0.9892132865338568	0.12003675590393441	0.5303289034027356	0.11205001610384395	0.13049469705329178	0.6559938449639391	0.5369575537674904	0.17413005777374901	0.8058337689456136	0.9589165640679915	0.16494694964483828	0.6122014807113242	0.9780895053194538	0.11764621609505375	0.674352866304397	0.9791125428133807	0.1832146160945045	0.854900679653986	1.0099941287057175	0.30599513393564626	0.3425823418201841	-0.3964021728353803	0.37174588657095564	0.20222723994094258	-0.6458432119622546	0.3211324984094057	0.19446822718619933	-0.47282196578458535	0.4436328973351944	0.42241719266191147	-0.3407302955704425	0.48330991001466217	0.5306257967969041	-0.09257590253177851	0.337542443927069	0.2629636988068735	-0.13769017852138501	0.2582948137700062	0.1541958961134416	-0.14660676679949655	0.2518031997582561	0.15667562058142478	-0.14598386176235437	0.2642899654824353	0.17797420253254048	-0.11592870286222588	0.13193776831313087	0.35231958965240523	-0.36748837512094706	0.017676704890552983	0.3438873373695511	-0.12377320464862292	0.17542711897925273	0.18814045578808816	-0.10389021964273192	0.21842322602594877	0.10902944028377545	-0.13020149152228008	0.2304127781989478	0.09760902782269541	-0.12778072925311634	0.24531215590642105	0.13326891734406068	-0.07830883699816747
